<?xml version="1.0" encoding="utf-8"?>
<!-- Generator: Adobe Illustrator 22.0.1, SVG Export Plug-In . SVG Version: 6.00 Build 0)  -->
<svg version="1.1" id="Layer_1" xmlns="http://www.w3.org/2000/svg" xmlns:xlink="http://www.w3.org/1999/xlink" x="0px" y="0px"
	 viewBox="0 0 100 100" style="enable-background:new 0 0 100 100;" xml:space="preserve">
<style type="text/css">
	.st0{fill:url(#SVGID_1_);}
	.st1{fill:#FFFFFF;}
</style>
<g>
	<linearGradient id="SVGID_1_" gradientUnits="userSpaceOnUse" x1="0.3385" y1="50" x2="99.3385" y2="50">
		<stop  offset="0" style="stop-color:#006AED"/>
		<stop  offset="1" style="stop-color:#3F35CB"/>
	</linearGradient>
	<ellipse class="st0" cx="50" cy="50" rx="49.5" ry="49"/>
</g>
<path class="st1" d="M64,55H36c-2.8,0-5-2.2-5-5v0c0-2.8,2.2-5,5-5h28c2.7,0,5,2.2,5,5v0C69,52.8,66.8,55,64,55z"/>
<path class="st1" d="M55,36v28c0,2.7-2.2,5-5,5h0c-2.8,0-5-2.3-5-5V36c0-2.8,2.2-5,5-5h0C52.8,31,55,33.2,55,36z"/>
</svg>
