<?xml version="1.0" encoding="utf-8"?>
<!--Generator: Adobe Illustrator 22.0.1, SVG Export Plug-In . SVG Version: 6.00 Build 0)-->
<svg version="1.1" id="Layer_1" xmlns="http://www.w3.org/2000/svg" xmlns:xlink="http://www.w3.org/1999/xlink" x="0px" y="0px" viewBox="0 0 24 24" style="enable-background:new 0 0 24 24" xml:space="preserve">
  <style type="text/css">
    .st0{fill:#fff}.st1{fill:#414c63}
  </style>
  <path class="st1" d="M16,1c-4.4,0-8,3.6-8,8c0,0.6,0.1,1.2,0.2,1.7L0,18v5h6v-2h2v-2h2l3.1-2.6C14,16.8,15,17,16,17c4.4,0,8-3.6,8-8S20.4,1,16,1
	z"/>
  <path class="st0" d="M9.6,18l3.2-2.7c0.4,0.2,1.5,0.7,3.1,0.7c3.9,0,7-3.1,7-7s-3.1-7-7-7c-3.9,0-7,3.1-7,7c0,0.9,0.1,1.4,0.3,2.1
	L1,18.4V22h4v-2h2v-2H9.6z"/>
  <polygon class="st1" points="9.8,14 9.1,13.3 2,19.7 2,21 "/>
  <circle class="st1" cx="18" cy="7" r="2"/>
  <circle class="st0" cx="18" cy="7" r="1"/>
</svg>
