<?xml version="1.0" encoding="utf-8"?>
<!-- Generator: Adobe Illustrator 22.0.1, SVG Export Plug-In . SVG Version: 6.00 Build 0)  -->
<svg version="1.1" id="Layer_1" xmlns="http://www.w3.org/2000/svg" xmlns:xlink="http://www.w3.org/1999/xlink" x="0px" y="0px"
	 viewBox="0 0 100 100" style="enable-background:new 0 0 100 100;" xml:space="preserve">
<style type="text/css">
	.st1{enable-background:new    ;}
</style>
<path d="M70.2,39.3l-3.4,5.6l-4.5-18l18-4.5L76.9,28c0,0,16.9,14.3,10.7,33.3C84.7,47.7,70.2,39.3,70.2,39.3z"/>
<g class="st1">
	<path d="M40.7,91.3V66.8h11.6c3.6,0,6.2,0.9,8,2.6c1.4,1.4,2.2,3.4,2.2,5.8c0,3.6-1.7,6.1-5,7.5l5.8,8.5h-7.8l-4.9-7.4h-3v7.4H40.7
		z M47.5,78.6h4.5c1.1,0,2-0.3,2.7-0.8c0.6-0.5,1-1.3,1-2.2c0-1-0.3-1.7-1-2.2s-1.5-0.7-2.7-0.7h-4.4V78.6z"/>
	<path d="M76.9,91.8c-3.6,0-6.4-0.9-8.4-2.8s-3-4.7-3-8.4V66.8h6.9v13.6c0,1.7,0.4,3,1.2,3.9c0.8,0.9,1.9,1.3,3.3,1.3
		c1.4,0,2.5-0.4,3.3-1.3c0.8-0.8,1.2-2.1,1.2-3.8V66.8h6.9v13.6c0,3.8-1,6.7-3,8.6C83.3,90.8,80.5,91.8,76.9,91.8z"/>
</g>
<g class="st1">
	<path d="M10.7,34.3V9.8h19.7v5.8h-13v3.7h11.8v5.4H17.4v3.9h13.2v5.8H10.7z"/>
	<path d="M34,34.3V9.8h6.3l10.1,13v-13h6.7v24.5h-6L40.7,20.9v13.4H34z"/>
</g>
<path d="M28.1,61.1l3.6-5.5l3.9,18.2l-18.2,3.9l3.6-5.5c0,0-16.4-14.8-9.5-33.6C13.9,52.3,28.1,61.1,28.1,61.1z"/>
</svg>
