<?xml version="1.0" encoding="utf-8"?>
<!--Generator: Adobe Illustrator 22.0.1, SVG Export Plug-In . SVG Version: 6.00 Build 0)-->
<svg version="1.1" id="Layer_1" xmlns="http://www.w3.org/2000/svg" xmlns:xlink="http://www.w3.org/1999/xlink" x="0px" y="0px" viewBox="0 0 100 100" style="enable-background:new 0 0 100 100" xml:space="preserve">
    <polygon points="44,37 44,27 19,27 7,27 6,27 6,69 7,69 19,69 44,69 44,59 19,59 19,53 41,53 41,43 19,43 19,37 "/>
    <polygon points="76.7,44.9 94.1,27 79.1,27 70.1,36.2 63,43.5 63,27 50,27 50,56.8 50,60 50,69 63,69 63,58.9 68.2,53.6 79.8,69 
	94.8,69 "/>
</svg>
